<svg width="438" height="438" viewBox="0 0 438 438" fill="none" xmlns="http://www.w3.org/2000/svg">
<path d="M404.273 194.363C404.273 297.345 320.784 380.825 217.806 380.825C114.825 380.825 31.3469 297.347 31.3469 194.363C31.3469 91.3865 114.825 7.90649 217.806 7.90649C320.782 7.90649 404.273 91.3865 404.273 194.363Z" fill="#591CD0"/>
<path d="M61.6569 194.363C61.6569 96.4925 137.074 16.2939 232.958 8.57216C227.955 8.17135 222.912 7.9082 217.806 7.9082C114.825 7.90646 31.3469 91.3865 31.3469 194.363C31.3469 297.345 114.825 380.825 217.806 380.825C222.912 380.825 227.955 380.562 232.958 380.161C137.075 372.44 61.6569 292.239 61.6569 194.363Z" fill="#864FE5"/>
<path d="M429.63 97.6391C429.631 99.2569 429.313 100.859 428.695 102.354C428.077 103.849 427.17 105.207 426.026 106.351C424.883 107.496 423.525 108.403 422.031 109.023C420.536 109.642 418.934 109.961 417.317 109.961C414.049 109.961 410.914 108.663 408.603 106.352C406.293 104.041 404.994 100.907 404.994 97.6391C404.994 94.3711 406.293 91.2368 408.603 88.926C410.914 86.6151 414.049 85.3168 417.317 85.3168C418.934 85.3171 420.536 85.636 422.031 86.2554C423.525 86.8749 424.883 87.7827 426.026 88.927C427.17 90.0713 428.077 91.4297 428.695 92.9245C429.313 94.4194 429.631 96.0214 429.63 97.6391Z" fill="#BFE4F1"/>
<path d="M32.5458 306.344C32.5467 307.962 32.2289 309.564 31.6105 311.059C30.9921 312.554 30.0853 313.912 28.9418 315.057C27.7983 316.201 26.4406 317.109 24.9462 317.728C23.4517 318.348 21.8499 318.666 20.2322 318.667C16.9641 318.667 13.8299 317.369 11.519 315.058C9.20815 312.747 7.90991 309.613 7.90991 306.344C7.90991 303.076 9.20815 299.942 11.519 297.631C13.8299 295.32 16.9641 294.022 20.2322 294.022C21.8499 294.022 23.4517 294.341 24.9462 294.961C26.4406 295.58 27.7983 296.488 28.9418 297.632C30.0853 298.777 30.9921 300.135 31.6105 301.63C32.2289 303.125 32.5467 304.727 32.5458 306.344Z" fill="#591CD0"/>
<path d="M70.3683 361.914C70.3683 372.36 61.906 380.825 51.4553 380.825C41.0151 380.825 32.551 372.36 32.551 361.914C32.551 351.469 41.0151 343.003 51.4553 343.003C61.9043 343.003 70.3683 351.469 70.3683 361.914Z" fill="#BFE4F1"/>
<path d="M45.8684 361.914C45.8684 353.821 50.9726 346.973 58.1157 344.272C56.0385 343.487 53.8096 343.003 51.4553 343.003C41.0151 343.003 32.551 351.469 32.551 361.914C32.551 372.36 41.0151 380.825 51.4553 380.825C53.8096 380.825 56.0385 380.341 58.1157 379.557C50.9726 376.856 45.8684 370.007 45.8684 361.914Z" fill="#74C5E1"/>
<path d="M130.993 116.564C141.438 116.474 149.833 107.935 149.743 97.4904C149.653 87.046 141.113 78.652 130.668 78.7418C120.222 78.8316 111.827 87.3713 111.917 97.8157C112.007 108.26 120.547 116.654 130.993 116.564Z" fill="#BFE4F1"/>
<path d="M254.755 253.613C265.2 253.528 273.599 244.993 273.515 234.548C273.43 224.104 264.894 215.706 254.448 215.79C244.003 215.875 235.604 224.41 235.689 234.855C235.773 245.299 244.309 253.697 254.755 253.613Z" fill="#BFE4F1"/>
<path d="M218.762 437.535C172.153 437.535 126.707 424.446 87.3348 399.679C85.5598 398.562 84.3012 396.786 83.8358 394.741C83.3704 392.696 83.7364 390.55 84.8533 388.775C85.9701 387 87.7464 385.742 89.7912 385.276C91.8361 384.811 93.982 385.177 95.757 386.294C132.602 409.469 175.138 421.718 218.762 421.718C291.851 421.718 361.471 386.564 405.003 327.678C406.267 326.041 408.123 324.964 410.172 324.679C412.221 324.394 414.3 324.923 415.964 326.153C417.627 327.383 418.742 329.216 419.07 331.259C419.398 333.301 418.912 335.391 417.717 337.08C371.222 399.981 296.843 437.535 218.762 437.535Z" fill="#591CD0"/>
<path d="M54.9452 227.69C76.0882 240.989 100.497 248.019 125.53 248.019C167.471 248.019 207.422 227.845 232.402 194.055C232.803 193.512 233.32 193.065 233.915 192.747C234.511 192.429 235.169 192.248 235.844 192.217C236.518 192.187 237.191 192.307 237.812 192.569C238.434 192.832 238.99 193.23 239.438 193.734C239.521 193.622 239.615 193.517 239.698 193.403C240.413 192.435 240.715 191.223 240.536 190.033C240.358 188.843 239.714 187.773 238.747 187.057C238.268 186.703 237.724 186.446 237.146 186.302C236.568 186.158 235.967 186.129 235.378 186.217C234.788 186.306 234.222 186.509 233.712 186.817C233.201 187.124 232.756 187.529 232.402 188.008C207.422 221.798 167.471 241.972 125.53 241.972C100.497 241.972 76.0882 234.943 54.9452 221.644C53.9265 221.004 52.6952 220.794 51.5219 221.061C50.3486 221.328 49.3294 222.05 48.6882 223.068C47.5832 224.824 47.8462 227.031 49.1672 228.502C49.8801 227.707 50.8509 227.19 51.908 227.042C52.9652 226.893 54.0409 227.123 54.9452 227.69Z" fill="#864FE5"/>
<path d="M300.386 85.3168C300.386 100.359 288.196 112.554 273.154 112.554C258.111 112.554 245.921 100.359 245.921 85.3168C245.921 70.2742 258.111 58.0809 273.154 58.0809C288.196 58.0809 300.386 70.2742 300.386 85.3168Z" fill="#BFE4F1"/>
<path d="M263.491 85.3168C263.491 73.3692 271.233 63.328 281.935 59.6597C279.166 58.71 276.247 58.0826 273.152 58.0826C258.11 58.0826 245.92 70.276 245.92 85.3186C245.92 100.361 258.11 112.556 273.152 112.556C276.245 112.556 279.164 111.927 281.935 110.979C271.233 107.309 263.491 97.2662 263.491 85.3168Z" fill="#74C5E1"/>
<path d="M130.826 240.847C130.826 255.889 118.636 268.085 103.594 268.085C88.5512 268.085 76.3613 255.889 76.3613 240.847C76.3613 225.804 88.5512 213.611 103.594 213.611C118.635 213.613 130.826 225.804 130.826 240.847ZM371.561 207.463C371.561 222.505 383.751 234.701 398.794 234.701C399.165 234.701 399.505 234.608 399.864 234.592C402.785 221.382 404.262 207.893 404.271 194.363C404.271 189.771 404.044 185.234 403.715 180.724C402.119 180.431 400.483 180.227 398.794 180.227C383.753 180.227 371.561 192.42 371.561 207.463Z" fill="#BFE4F1"/>
<path d="M388.132 207.463C388.132 196.472 394.676 187.06 404.05 182.756C404.008 182.079 403.984 181.4 403.931 180.725C402.335 180.433 400.699 180.229 399.01 180.229C383.967 180.229 371.778 192.422 371.778 207.465C371.778 222.507 383.967 234.702 399.01 234.702C399.381 234.702 399.721 234.61 400.08 234.594C400.378 233.224 400.605 231.832 400.878 230.452C393.245 225.625 388.132 217.166 388.132 207.463Z" fill="#74C5E1"/>
<path d="M262.898 347.595C247.856 347.595 235.666 359.788 235.666 374.831C235.666 376.58 235.861 378.283 236.18 379.94C254.272 378.203 272.009 373.815 288.824 366.916C285.415 355.763 275.172 347.595 262.898 347.595Z" fill="#BFE4F1"/>
<path d="M251.536 374.831C251.536 362.524 259.748 352.246 270.955 348.87C268.35 348.037 265.633 347.608 262.898 347.596C247.856 347.596 235.666 359.79 235.666 374.832C235.666 376.582 235.861 378.285 236.18 379.942C241.473 379.433 246.676 378.642 251.826 377.701C251.718 376.746 251.536 375.814 251.536 374.831Z" fill="#74C5E1"/>
<path d="M17.9058 306.344C17.907 303.962 18.5998 301.632 19.8999 299.635C21.2001 297.639 23.0518 296.063 25.2301 295.099C23.6579 294.394 21.9551 294.028 20.2322 294.024C16.9641 294.024 13.8299 295.322 11.519 297.633C9.20815 299.944 7.90991 303.078 7.90991 306.346C7.90991 309.614 9.20815 312.748 11.519 315.059C13.8299 317.37 16.9641 318.668 20.2322 318.668C21.9551 318.664 23.6579 318.298 25.2301 317.593C20.9171 315.669 17.9058 311.367 17.9058 306.344Z" fill="#864FE5"/>
<path d="M414.99 97.6392C414.99 95.2571 415.682 92.9265 416.982 90.9302C418.282 88.934 420.133 87.358 422.311 86.3938C420.741 85.6891 419.04 85.3227 417.318 85.3186C414.05 85.3186 410.916 86.6168 408.605 88.9277C406.294 91.2386 404.996 94.3728 404.996 97.6409C404.996 100.909 406.294 104.043 408.605 106.354C410.916 108.665 414.05 109.963 417.318 109.963C419.039 109.958 420.74 109.592 422.311 108.888C420.133 107.922 418.282 106.346 416.983 104.349C415.683 102.352 414.991 100.021 414.99 97.6392ZM93.9272 240.896C93.9272 228.948 101.67 218.907 112.371 215.239C109.602 214.289 106.683 213.661 103.589 213.661C88.5459 213.661 76.3561 225.855 76.3561 240.897C76.3561 255.94 88.5459 268.135 103.589 268.135C106.682 268.135 109.601 267.506 112.371 266.558C101.67 262.888 93.9272 252.845 93.9272 240.896ZM248.978 234.701C248.978 226.608 254.084 219.759 261.231 217.058C259.152 216.274 256.921 215.789 254.568 215.789C244.128 215.789 235.666 224.255 235.666 234.701C235.666 245.146 244.128 253.612 254.568 253.612C256.921 253.612 259.15 253.127 261.231 252.343C254.086 249.642 248.978 242.793 248.978 234.701ZM125.227 97.6392C125.227 89.5463 130.333 82.6976 137.48 79.9965C135.401 79.2123 133.17 78.7279 130.817 78.7279C120.377 78.7279 111.915 87.1937 111.915 97.6392C111.915 108.085 120.379 116.55 130.817 116.55C133.17 116.55 135.399 116.066 137.48 115.282C130.333 112.581 125.227 105.732 125.227 97.6392Z" fill="#74C5E1"/>
<path d="M217.805 388.732C110.632 388.732 23.4387 301.538 23.4387 194.363C23.4387 87.1902 110.632 1.64577e-05 217.805 1.64577e-05C265.506 -0.019619 311.543 17.5314 347.124 49.3014C347.899 49.9926 348.53 50.8298 348.982 51.765C349.433 52.7003 349.695 53.7153 349.754 54.752C349.813 55.7888 349.667 56.8269 349.324 57.8072C348.981 58.7874 348.449 59.6905 347.757 60.4648C346.361 62.0291 344.401 62.9748 342.308 63.0941C340.215 63.2134 338.16 62.4964 336.595 61.1009C303.91 31.918 261.621 15.7964 217.804 15.8146C119.349 15.8146 39.2515 95.9121 39.2515 194.363C39.2515 292.818 119.349 372.917 217.804 372.917C316.26 372.917 396.363 292.818 396.363 194.363C396.363 156.006 384.358 119.438 361.651 88.6087C361.035 87.7725 360.59 86.8231 360.341 85.8149C360.092 84.8067 360.044 83.7593 360.2 82.7326C360.356 81.7058 360.712 80.7198 361.249 79.8308C361.786 78.9419 362.493 78.1674 363.329 77.5515C364.165 76.9357 365.115 76.4906 366.123 76.2417C367.131 75.9927 368.179 75.9448 369.205 76.1006C370.232 76.2565 371.218 76.613 372.107 77.1499C372.996 77.6868 373.77 78.3935 374.386 79.2297C399.106 112.795 412.177 152.609 412.177 194.363C412.179 301.538 324.984 388.732 217.805 388.732ZM417.316 117.868C406.162 117.868 397.084 108.792 397.084 97.6391C397.084 86.4861 406.16 77.4104 417.316 77.4104C428.466 77.4104 437.538 86.4861 437.538 97.6391C437.538 108.792 428.468 117.868 417.316 117.868ZM417.316 93.225C416.146 93.2259 415.023 93.6911 414.195 94.5186C413.367 95.3461 412.901 96.4684 412.899 97.6391C412.901 98.8099 413.367 99.9321 414.195 100.76C415.023 101.587 416.146 102.052 417.316 102.053C418.466 102.021 419.557 101.542 420.359 100.717C421.16 99.8932 421.608 98.7888 421.608 97.6391C421.608 96.4894 421.16 95.3851 420.359 94.5608C419.557 93.7365 418.466 93.2573 417.316 93.225ZM20.2322 326.573C9.07574 326.573 0 317.497 0 306.344C0 295.191 9.07574 286.116 20.2322 286.116C31.3834 286.116 40.4539 295.191 40.4539 306.344C40.4539 317.497 31.3817 326.573 20.2322 326.573ZM20.2322 301.93C19.0615 301.931 17.9389 302.396 17.1107 303.224C16.2826 304.051 15.8164 305.174 15.8146 306.344C15.8164 307.515 16.2826 308.637 17.1107 309.465C17.9389 310.292 19.0615 310.758 20.2322 310.759C21.3814 310.726 22.4728 310.247 23.2742 309.423C24.0757 308.598 24.524 307.494 24.524 306.344C24.524 305.195 24.0757 304.09 23.2742 303.266C22.4728 302.442 21.3814 301.963 20.2322 301.93Z" fill="#110524"/>
<path d="M51.4571 388.732C36.669 388.732 24.6412 376.701 24.6412 361.914C24.6412 347.126 36.669 335.096 51.4571 335.096C66.247 335.096 78.2783 347.128 78.2783 361.914C78.2783 376.702 66.247 388.732 51.4571 388.732ZM51.4571 350.911C48.5402 350.915 45.7438 352.075 43.6814 354.138C41.619 356.201 40.459 358.997 40.4558 361.914C40.4585 364.831 41.6184 367.628 43.6809 369.691C45.7434 371.754 48.5401 372.914 51.4571 372.917C54.3748 372.914 57.1722 371.754 59.2357 369.692C61.2991 367.629 62.46 364.832 62.4637 361.914C62.46 358.996 61.2991 356.199 59.2357 354.137C57.1722 352.074 54.3748 350.914 51.4571 350.911ZM130.823 124.457C116.035 124.457 104.007 112.426 104.007 97.6391C104.007 82.851 116.035 70.8214 130.823 70.8214C145.613 70.8214 157.644 82.8527 157.644 97.6391C157.644 112.426 145.613 124.457 130.823 124.457ZM130.823 86.6343C127.906 86.638 125.109 87.7985 123.047 89.8612C120.985 91.9239 119.825 94.7205 119.821 97.6374C119.825 100.554 120.985 103.351 123.047 105.414C125.109 107.476 127.906 108.637 130.823 108.64C133.74 108.638 136.538 107.478 138.601 105.415C140.665 103.352 141.826 100.555 141.829 97.6374C141.826 94.7197 140.665 91.9226 138.601 89.8599C136.538 87.7971 133.74 86.6371 130.823 86.6343ZM254.579 261.518C239.789 261.518 227.758 249.487 227.758 234.701C227.758 219.912 239.789 207.883 254.579 207.883C269.369 207.883 281.4 219.914 281.4 234.701C281.4 249.489 269.371 261.518 254.579 261.518ZM254.579 223.697C248.509 223.697 243.572 228.634 243.572 234.701C243.572 240.767 248.509 245.704 254.579 245.704C260.649 245.704 265.586 240.767 265.586 234.701C265.586 228.634 260.649 223.697 254.579 223.697ZM218.766 437.535C172.158 437.535 126.712 424.446 87.3366 399.679C86.4577 399.126 85.6963 398.405 85.096 397.558C84.4956 396.711 84.068 395.754 83.8376 394.741C83.6071 393.729 83.5784 392.681 83.753 391.657C83.9276 390.633 84.302 389.654 84.8551 388.775C85.4081 387.896 86.1288 387.135 86.976 386.535C87.8233 385.934 88.7805 385.507 89.793 385.276C90.8055 385.046 91.8535 385.017 92.8771 385.192C93.9007 385.366 94.8799 385.741 95.7588 386.294C132.609 409.469 175.144 421.718 218.767 421.718C291.853 421.718 361.473 386.564 405.005 327.678C406.269 326.041 408.125 324.964 410.174 324.679C412.223 324.394 414.302 324.923 415.965 326.153C417.629 327.383 418.744 329.216 419.072 331.259C419.4 333.301 418.914 335.391 417.719 337.08C371.222 399.981 296.844 437.535 218.766 437.535ZM273.154 120.463C253.777 120.463 238.013 104.697 238.013 85.3168C238.013 65.9403 253.776 50.1745 273.154 50.1745C292.532 50.1745 308.294 65.9403 308.294 85.3168C308.293 104.697 292.53 120.463 273.154 120.463ZM273.154 65.9891C262.498 65.9891 253.828 74.6605 253.828 85.3168C253.828 95.9749 262.498 104.648 273.154 104.648C283.81 104.648 292.48 95.9766 292.48 85.3168C292.478 74.6605 283.81 65.9891 273.154 65.9891ZM103.59 275.993C84.2138 275.993 68.4497 260.227 68.4497 240.849C68.4497 240.535 68.4811 240.089 68.5247 239.719C68.8906 235.622 72.2539 232.59 76.5426 232.52C78.6396 232.558 80.6357 233.428 82.0919 234.937C83.5481 236.447 84.3452 238.473 84.3079 240.57C84.3001 240.784 84.2861 240.999 84.266 241.213C84.4612 251.704 93.0542 260.18 103.589 260.18C114.245 260.18 122.915 251.508 122.915 240.849C122.915 230.44 114.729 221.99 104.277 221.613C102.181 221.537 100.201 220.632 98.7724 219.096C97.3439 217.561 96.584 215.52 96.6598 213.424C96.8149 209.064 100.344 205.661 104.849 205.807C123.847 206.492 138.729 221.882 138.729 240.847C138.731 260.227 122.967 275.993 103.59 275.993ZM398.794 242.607C379.417 242.607 363.653 226.841 363.653 207.461C363.653 188.085 379.417 172.319 398.794 172.319C400.77 172.319 402.851 172.524 405.146 172.946C406.867 173.263 408.434 174.142 409.602 175.444C410.77 176.747 411.473 178.4 411.601 180.145C411.991 185.532 412.177 190.05 412.177 194.362C412.177 208.336 410.634 222.441 407.586 236.29C407.212 237.993 406.285 239.524 404.95 240.646C403.614 241.767 401.946 242.416 400.204 242.49C399.739 242.574 399.267 242.613 398.794 242.607ZM396.236 188.302C386.784 189.559 379.468 197.671 379.468 207.463C379.468 216.289 385.414 223.753 393.507 226.06C395.4 215.601 396.356 204.994 396.363 194.365C396.363 192.343 396.321 190.322 396.236 188.302Z" fill="#110524"/>
<path d="M236.176 387.847C234.34 387.846 232.561 387.205 231.145 386.035C229.729 384.865 228.765 383.239 228.418 381.435C227.987 379.26 227.767 377.048 227.759 374.831C227.759 355.454 243.522 339.688 262.9 339.688C278.375 339.688 291.832 349.702 296.387 364.605C296.963 366.489 296.815 368.521 295.972 370.302C295.128 372.082 293.65 373.484 291.826 374.231C274.295 381.423 255.801 385.999 236.938 387.812C236.68 387.834 236.427 387.847 236.176 387.847ZM262.898 355.503C253.539 355.503 245.709 362.193 243.943 371.042C255.48 369.366 266.816 366.564 277.807 362.664C276.021 360.425 273.753 358.619 271.171 357.379C268.59 356.139 265.762 355.498 262.898 355.503Z" fill="#110524"/>
</svg>
